<?xml version="1.0" encoding="utf-8"?>
<!-- Generator: Adobe Illustrator 26.3.1, SVG Export Plug-In . SVG Version: 6.00 Build 0)  -->
<svg version="1.1" xmlns="http://www.w3.org/2000/svg" xmlns:xlink="http://www.w3.org/1999/xlink" x="0px" y="0px"
	 viewBox="0 0 718.6 266.6" style="enable-background:new 0 0 718.6 266.6;" xml:space="preserve">
<style type="text/css">
	.st0{fill:none;}
	.st1{fill:#FF3DBA;}
	.st2{fill:none;stroke:#FFFFFF;stroke-miterlimit:10;}
	.st3{fill:#2949D3;}
	.st4{opacity:0.3;fill:#2949D3;}
	.st5{fill:url(#New_Pattern_4);}
	.st6{fill:url(#SVGID_1_);}
	.st7{fill:url(#SVGID_00000103961051757473433500000006632444811690885049_);}
	.st8{fill:url(#SVGID_00000080173720890762205470000012750463110814733980_);}
	.st9{fill:none;stroke:#FF3DBA;stroke-width:0.8292;stroke-miterlimit:10;}
	.st10{display:none;}
	.st11{display:inline;fill:url(#);}
	.st12{fill:none;stroke:#0031B4;stroke-miterlimit:10;}
	.st13{fill:none;stroke:#151569;stroke-miterlimit:10;}
	.st14{fill:#FFFFFF;}
	.st15{display:inline;fill:none;stroke:#BFBFBF;stroke-width:0.75;stroke-miterlimit:10;}
	.st16{display:inline;}
	.st17{fill:none;stroke:#BFBFBF;stroke-width:0.75;stroke-miterlimit:10;}
	.st18{fill:#BFBFBF;}
	.st19{fill:#E5E5E5;}
	.st20{fill:#666666;}
	.st21{fill:#655CE5;}
	.st22{fill:#0031B4;}
	.st23{fill:#B2B2B2;}
	.st24{fill:none;stroke:#BFBFBF;stroke-miterlimit:10;}
	.st25{fill:#B3E58A;}
	.st26{fill:#5FCE05;}
	.st27{opacity:0.13;fill:#FFFFFF;}
	.st28{fill:#D8D4D3;}
	.st29{fill:none;stroke:#FF3DBA;stroke-width:3;stroke-linecap:round;stroke-linejoin:round;stroke-miterlimit:10;}
	.st30{fill:none;stroke:#FFFFFF;stroke-width:2;stroke-linecap:round;stroke-linejoin:round;stroke-miterlimit:10;}
	.st31{fill:none;stroke:#000000;stroke-miterlimit:10;}
	.st32{fill:none;stroke:#FFFFFF;stroke-width:2;stroke-miterlimit:10;}
	.st33{fill:none;stroke:#B2B2B2;stroke-width:2;stroke-miterlimit:10;}
	.st34{fill:#D4FF33;}
	.st35{opacity:0.13;fill:#D4FF33;}
	.st36{fill-rule:evenodd;clip-rule:evenodd;}
	.st37{fill:none;stroke:#000000;stroke-width:0.9401;stroke-miterlimit:10;}
	.st38{fill:none;stroke:#EE005B;stroke-miterlimit:10;}
	.st39{fill:#EE005B;}
	.st40{fill:none;stroke:#000000;stroke-width:0.9001;stroke-miterlimit:10;}
	.st41{fill:none;stroke:#000000;stroke-width:0.8138;stroke-miterlimit:10;}
	.st42{fill:#FFFFFF;stroke:#000000;stroke-miterlimit:10;}
	.st43{fill:#4D4D4D;}
	.st44{fill:url(#SVGID_00000092444952699572681130000000054262460649102221_);}
	.st45{fill:url(#SVGID_00000072988292955502968570000016067330224284781710_);}
	.st46{fill:url(#SVGID_00000127749303621629465700000008383640270031865004_);}
	.st47{fill:url(#SVGID_00000070829895549521094910000011551277790200369562_);}
	.st48{fill:url(#SVGID_00000173125131310004453830000010413626010476652474_);}
</style>
<pattern  x="-4997.8" y="-2953.5" width="718.6" height="533.2" patternUnits="userSpaceOnUse" id="New_Pattern_4" viewBox="232.7 -829.6 718.6 533.2" style="overflow:visible;">
	<g>
		<rect x="232.7" y="-829.6" class="st0" width="718.6" height="533.2"/>
		<g>
			<path class="st1" d="M1046.6-137.3c-13,23.7,8.6,28.7,2.7,35.6c-11.2,8.7-31.9-5.2-40.6,10.7c-14.9,20.5,6.6,66.3-14,70
				c-9.7,1.7-16.9-9.4-18.4-18c-6.3-35.4-28.9-56.1-54.8-75.6c-6.9-5.2-13.6-10.8-19.7-16.9c-12.5-12.7-33.1-20-50.3-21.3
				c-21.4-1.6-39.5,3.5-53.9-11.1c-41-41.9,60.3-63.1,89.8-72.3c22.1-6.8-10.8-23.6-9.9-38.2c1.3-20.4,34.1-17.2,62-10.4
				c23.7,0.2,27.6-18.8,4.9-23.2c-12.7-2.5-47.9-2.1-64.7,7.3c-16.5,9.2-26.2,13-23.3,30.2c12.1,70.6-133.1,7.2-137.6,65.6
				c0.8,26.7,54.7,15,55.6,62.9c0,0.1,0.4,6.2,0.5,6.3c1.2,7.8,9.1,26.2,22.8,19.3c25.5-12.8,43.2-22.7,59.3-21.2
				c23.5,2.2,32.8,13.3,18.4,12.6c-5.3-0.3-3.5,13.7,8.4,15c23.2,2.4,28.3,24,58.6,40.1c7.3,4.9,13.4,11.5,16.8,19.8
				c0,0,0,0.1,0.1,0.1c2.6,5.4-2.4,11.3-8.2,9.9c-28.8-6.8-54.1,4.6-6.9,24c8.4,2.4,38.2,15.4,53.4,16.1c30,0.1,15.3-40.5,20.3-59
				c6-23,34.5-8.2,49.5-21.2C1083.1-95.2,1058.2-158.5,1046.6-137.3z"/>
			<path class="st1" d="M1251.3-255c-88-22.5-54.4,31.2-97,40c-16.7-0.3-25.7-15.4-32.3-28.4c-9-15.8-19.5-39.9-46.1-39.9
				c-12.5,0,5.7-36.6-17.2-40.6c-22.4-3.9-27.4,26.5-28.3,35c-3.7,37.4,24.8,19.4,35.9,20.9c26.2,3.4,21.5,39.7,24.6,62.4
				c2,18.3,14.2,36.3,10.4,54.5c-0.8,3.8-4.8,7.4-7.8,7.6c-14.3,0.8-9.7-28.9-11.3-40.9c-2-18.1-9.5-34.9-16.9-51.5
				c-12.4-23.3-46.5,0.6-68-6c-7-1.4-12.7-3.5-17.4-6.1c-18.7-10.2-11.8-19.3-32.2-25.7c-20.3-6.3-31.6,2.1-41.4,9.7
				c-14.9,11.6-0.7,21,11.2,16.6c28.8-10.7,43.5,17,58.3,23.3c18.7,10,36.9-9.3,55.5-4.8c43.6,10.1,27.3,57.9,42.3,91.2
				c18.5,41.4-5.2,73.3,12.4,75.6c16.6,1.3,58.8-31.2,40.3-37.4c-10.1-3.4,0.5-31.6-3.2-48.4c-6.1-28-20.8-49.7-9.4-58.2
				c9-9,41.6-5.9,53.6,2.1c13,9,16,26,30,36c7,5,22,5,22-5c0-22-30-40-18.1-63.5c4.1-7.2,12.2-10.2,20.7-9.3
				C1232.1-244.9,1278.9-238.2,1251.3-255z"/>
			<path class="st1" d="M808.6-313.5c-4.5-6.3-23.5-15.4-25.1,6.4c-0.8,10.4,0.8,31.2,1.8,41.5c1.8,18.1,31.9,18,39.2,8.3
				C834.6-270.7,816.2-302.7,808.6-313.5z"/>
		</g>
		<g>
			<path class="st1" d="M328-137.3c-13,23.7,8.6,28.7,2.7,35.6C319.4-93,298.8-106.9,290-91c-14.9,20.5,6.6,66.3-14,70
				c-9.7,1.7-16.9-9.4-18.4-18c-6.3-35.4-28.9-56.1-54.8-75.6c-6.9-5.2-13.6-10.8-19.7-16.9c-12.5-12.7-33.1-20-50.3-21.3
				c-21.4-1.6-39.5,3.5-53.9-11.1c-41-41.9,60.3-63.1,89.8-72.3c22.1-6.8-10.9-23.6-9.9-38.2c1.3-20.4,34.1-17.2,62-10.4
				c23.7,0.2,27.6-18.8,4.9-23.2c-12.7-2.5-47.9-2.1-64.7,7.3c-16.5,9.2-26.2,13-23.3,30.2C149.7-200.1,4.5-263.4,0-205
				c0.8,26.7,54.7,15,55.6,62.9c0,0.1,0.4,6.2,0.5,6.3c1.2,7.8,9.1,26.2,22.8,19.3c25.5-12.8,43.2-22.7,59.3-21.2
				c23.5,2.2,32.8,13.3,18.4,12.6c-5.3-0.3-3.5,13.7,8.4,15c23.2,2.4,28.3,24,58.6,40.1c7.3,4.9,13.4,11.5,16.8,19.8
				c0,0,0,0.1,0.1,0.1c2.6,5.4-2.4,11.3-8.2,9.9c-28.8-6.8-54.1,4.6-6.9,24c8.4,2.4,38.2,15.4,53.4,16.1c30,0.1,15.3-40.5,20.3-59
				c6-23,34.5-8.2,49.5-21.2C364.5-95.2,339.6-158.5,328-137.3z"/>
			<path class="st1" d="M532.7-255c-88-22.5-54.4,31.2-97,40c-16.7-0.3-25.7-15.4-32.3-28.4c-9-15.8-19.5-39.9-46.1-39.9
				c-12.5,0,5.7-36.6-17.2-40.6c-22.4-3.9-27.4,26.5-28.3,35c-3.7,37.4,24.8,19.4,35.9,20.9c26.2,3.4,21.5,39.7,24.6,62.4
				c2,18.3,14.2,36.3,10.4,54.5c-0.8,3.8-4.8,7.4-7.8,7.6c-14.3,0.8-9.7-28.9-11.3-40.9c-2-18.1-9.5-34.9-16.9-51.5
				c-12.4-23.3-46.5,0.6-68-6c-7-1.4-12.7-3.5-17.4-6.1c-18.7-10.2-11.8-19.3-32.2-25.7c-20.3-6.3-31.6,2.1-41.4,9.7
				c-14.9,11.6-0.7,21,11.2,16.6c28.8-10.7,43.5,17,58.3,23.3c18.7,10,36.9-9.3,55.5-4.8c43.6,10.1,27.3,57.9,42.3,91.2
				c18.5,41.4-5.2,73.3,12.4,75.6c16.6,1.3,58.8-31.2,40.3-37.4c-10.1-3.4,0.5-31.6-3.2-48.4c-6.1-28-20.8-49.7-9.4-58.2
				c9-9,41.6-5.9,53.6,2.1c13,9,16,26,30,36c7,5,22,5,22-5c0-22-30-40-18.1-63.5c4.1-7.2,12.2-10.2,20.7-9.3
				C513.5-244.9,560.3-238.2,532.7-255z"/>
		</g>
		<g>
			<path class="st1" d="M1014.3-379.3c-30.3,33.8-59.6,9.1-81.2-13.2c-17.9-14.9-39-26.9-62.1-37.5c-11.6-6.4-27.6-13.4-28.8-27.6
				c0.4-20.6,38.4-33.4,56.1-39.4c34.6-11.8,44.4,10.7,75.6,21.3c29.5-1.4,68.7,1.1,70.8,38.2
				C1046.1-413.6,1030.5-397.4,1014.3-379.3z M1017.1-437.7c-31.5-33.8-40.5-8.8-65.6-23.6c-19.2-8.3-46.2-20.3-59.2-1.3
				c-12,20,27.1,37.4,42.7,53.2c9.9,7.4,21.7,13.5,33.7,16.5c21.5,6.4,47.1-5.7,52.5-28.1C1023.2-428.6,1020.7-433.8,1017.1-437.7z"
				/>
			<path class="st1" d="M980.1-404.7c-10.4,2.1-20.6-1-28.9-7.2c-4.9-3.7-21.6-14.5-17.9-23.5c2-4.7,8-3,13.5-2.6
				c6,1.8,12.9,0.2,19-0.5c13.6-1.9,27.6,11.1,31.6,23.1C998.7-407.2,987.4-405.7,980.1-404.7z"/>
			<path class="st1" d="M1046.6-403.9c-13,23.7,8.6,28.7,2.7,35.6c-11.2,8.7-31.9-5.2-40.6,10.7c-14.9,20.5,6.6,66.3-14,70
				c-9.7,1.7-16.9-9.4-18.4-18c-6.3-35.4-28.9-56.1-54.8-75.6c-6.9-5.2-13.6-10.8-19.7-16.9c-12.5-12.7-33.1-20-50.3-21.3
				c-21.4-1.6-39.5,3.5-53.9-11.1c-41-41.9,60.3-63.1,89.8-72.3c22.1-6.8-10.8-23.6-9.9-38.2c1.3-20.4,34.1-17.2,62-10.4
				c23.7,0.2,27.6-18.8,4.9-23.2c-12.7-2.5-47.9-2.1-64.7,7.3c-16.5,9.2-26.2,13-23.3,30.2c12.1,70.6-133.1,7.2-137.6,65.6
				c0.8,26.7,54.7,15,55.6,62.9c0,0.1,0.4,6.2,0.5,6.3c1.2,7.8,9.1,26.2,22.8,19.3c25.5-12.8,43.2-22.7,59.3-21.2
				c23.5,2.2,32.8,13.3,18.4,12.6c-5.3-0.3-3.5,13.7,8.4,15c23.2,2.4,28.3,24,58.6,40.1c7.3,4.9,13.4,11.5,16.8,19.8
				c0,0,0,0.1,0.1,0.1c2.6,5.4-2.4,11.3-8.2,9.9c-28.8-6.8-54.1,4.6-6.9,24c8.4,2.4,38.2,15.4,53.4,16.1c30,0.1,15.3-40.5,20.3-59
				c6-23,34.5-8.2,49.5-21.2C1083.1-361.8,1058.2-425.1,1046.6-403.9z"/>
			<path class="st1" d="M1251.3-521.6c-88-22.5-54.4,31.2-97,40c-16.7-0.3-25.7-15.4-32.3-28.4c-9-15.8-19.5-39.9-46.1-39.9
				c-12.5,0,5.7-36.6-17.2-40.6c-22.4-3.9-27.4,26.5-28.3,35c-3.7,37.4,24.8,19.4,35.9,20.9c26.2,3.4,21.5,39.7,24.6,62.4
				c2,18.3,14.2,36.3,10.4,54.5c-0.8,3.8-4.8,7.4-7.8,7.6c-14.3,0.8-9.7-28.9-11.3-40.9c-2-18.1-9.5-34.9-16.9-51.5
				c-12.4-23.3-46.5,0.6-68-6c-7-1.4-12.7-3.5-17.4-6.1c-18.7-10.2-11.8-19.3-32.2-25.7c-20.3-6.3-31.6,2.1-41.4,9.7
				c-14.9,11.6-0.7,21,11.2,16.6c28.8-10.7,43.5,17,58.3,23.3c18.7,10,36.9-9.3,55.5-4.8c43.6,10.1,27.3,57.9,42.3,91.2
				c18.5,41.4-5.2,73.3,12.4,75.6c16.6,1.3,58.8-31.2,40.3-37.4c-10.1-3.4,0.5-31.6-3.2-48.4c-6.1-28-20.8-49.7-9.4-58.2
				c9-9,41.6-5.9,53.6,2.1c13,9,16,26,30,36c7,5,22,5,22-5c0-22-30-40-18.1-63.5c4.1-7.2,12.2-10.2,20.7-9.3
				C1232.1-511.5,1278.9-504.9,1251.3-521.6z"/>
			<path class="st1" d="M808.6-580.1c-4.5-6.3-23.5-15.4-25.1,6.4c-0.8,10.4,0.8,31.2,1.8,41.5c1.8,18.1,31.9,18,39.2,8.3
				C834.6-537.3,816.2-569.3,808.6-580.1z"/>
			<path class="st1" d="M885.7-352.9c-29.8-20.2-29.7,26.2-2.2,31.9c12.3,2.5,36.1,6,30.2-12.6C910.9-342.9,894-347.4,885.7-352.9z"
				/>
		</g>
		<g>
			<path class="st1" d="M655-246c-30.3,33.8-59.6,9.1-81.2-13.2c-17.9-14.9-39-26.9-62.1-37.5c-11.6-6.4-27.6-13.4-28.8-27.6
				c0.4-20.6,38.4-33.4,56.1-39.4c34.6-11.8,44.4,10.7,75.6,21.3c29.5-1.4,68.7,1.1,70.8,38.2C686.8-280.3,671.3-264.1,655-246z
				 M657.8-304.4c-31.5-33.8-40.5-8.8-65.6-23.6c-19.2-8.3-46.2-20.3-59.2-1.3c-12,20,27.1,37.4,42.7,53.2
				c9.9,7.4,21.7,13.5,33.7,16.5c21.5,6.4,47.1-5.7,52.5-28.1C663.9-295.3,661.5-300.5,657.8-304.4z"/>
			<path class="st1" d="M620.8-271.4c-10.4,2.1-20.6-1-28.9-7.2c-4.9-3.7-21.6-14.5-17.9-23.5c2-4.7,8-3,13.5-2.6
				c6,1.8,12.9,0.2,19-0.5c13.6-1.9,27.6,11.1,31.6,23.1C639.4-273.9,628.1-272.4,620.8-271.4z"/>
			<path class="st1" d="M687.3-270.6c-13,23.7,8.6,28.7,2.7,35.6c-11.2,8.7-31.9-5.2-40.6,10.7c-14.9,20.5,6.6,66.3-14,70
				c-9.7,1.7-16.9-9.4-18.4-18c-6.3-35.4-28.9-56.1-54.8-75.6c-6.9-5.2-13.6-10.8-19.7-16.9c-12.5-12.7-33.1-20-50.3-21.3
				c-21.4-1.6-39.5,3.5-53.9-11.1c-41-41.9,60.3-63.1,89.8-72.3c22.1-6.8-10.9-23.6-9.9-38.2c1.3-20.4,34.1-17.2,62-10.4
				c23.7,0.2,27.6-18.8,4.9-23.2c-12.7-2.5-47.9-2.1-64.7,7.3c-16.5,9.2-26.2,13-23.3,30.2c12.1,70.6-133.1,7.2-137.6,65.6
				c0.8,26.7,54.7,15,55.6,62.9c0,0.1,0.4,6.2,0.5,6.3c1.2,7.8,9.1,26.2,22.8,19.3c25.5-12.8,43.2-22.7,59.3-21.2
				c23.5,2.2,32.8,13.3,18.4,12.6c-5.3-0.3-3.5,13.7,8.4,15c23.2,2.4,28.3,24,58.6,40.1c7.3,4.9,13.4,11.5,16.8,19.8
				c0,0,0,0.1,0.1,0.1c2.6,5.4-2.4,11.3-8.2,9.9c-28.8-6.8-54.1,4.6-6.9,24c8.4,2.4,38.2,15.4,53.4,16.1c30,0.1,15.3-40.5,20.3-59
				c6-23,34.5-8.2,49.5-21.2C723.8-228.5,698.9-291.8,687.3-270.6z"/>
			<path class="st1" d="M892-388.3c-88-22.5-54.4,31.2-97,40c-16.7-0.3-25.7-15.4-32.3-28.4c-9-15.8-19.5-39.9-46.1-39.9
				c-12.5,0,5.7-36.6-17.2-40.6c-22.4-3.9-27.4,26.5-28.3,35c-3.7,37.4,24.8,19.4,35.9,20.9c26.2,3.4,21.5,39.7,24.6,62.4
				c2,18.3,14.2,36.3,10.4,54.5c-0.8,3.8-4.8,7.4-7.8,7.6c-14.3,0.8-9.7-28.9-11.3-40.9c-2-18.1-9.5-34.9-16.9-51.5
				c-12.4-23.3-46.5,0.6-68-6c-7-1.4-12.7-3.5-17.4-6.1c-18.7-10.2-11.8-19.3-32.2-25.7c-20.3-6.3-31.6,2.1-41.4,9.7
				c-14.9,11.6-0.7,21,11.2,16.6c28.8-10.7,43.5,17,58.3,23.3c18.7,10,36.9-9.3,55.5-4.8c43.6,10.1,27.3,57.9,42.3,91.2
				c18.5,41.4-5.2,73.3,12.4,75.6c16.6,1.3,58.8-31.2,40.3-37.4c-10.1-3.4,0.5-31.6-3.2-48.4c-6.1-28-20.8-49.7-9.4-58.2
				c9-9,41.6-5.9,53.6,2.1c13,9,16,26,30,36c7,5,22,5,22-5c0-22-30-40-18.1-63.5c4.1-7.2,12.2-10.2,20.7-9.3
				C872.8-378.2,919.6-371.6,892-388.3z"/>
			<path class="st1" d="M449.3-446.8c-4.5-6.3-23.5-15.4-25.1,6.4c-0.8,10.4,0.8,31.2,1.8,41.5c1.8,18.1,31.9,18,39.2,8.3
				C475.3-404,456.9-436,449.3-446.8z"/>
		</g>
		<g>
			<path class="st1" d="M295.7-379.3c-30.3,33.8-59.6,9.1-81.2-13.2c-17.9-14.9-39-26.9-62.1-37.5c-11.6-6.4-27.6-13.4-28.8-27.6
				c0.4-20.6,38.4-33.4,56.1-39.4c34.6-11.8,44.4,10.7,75.6,21.3c29.5-1.4,68.7,1.1,70.8,38.2C327.5-413.6,312-397.4,295.7-379.3z
				 M298.5-437.7c-31.5-33.8-40.5-8.8-65.6-23.6c-19.2-8.3-46.2-20.3-59.2-1.3c-12,20,27.1,37.4,42.7,53.2
				c9.9,7.4,21.7,13.5,33.7,16.5c21.5,6.4,47.1-5.7,52.5-28.1C304.6-428.6,302.2-433.8,298.5-437.7z"/>
			<path class="st1" d="M261.5-404.7c-10.4,2.1-20.6-1-28.9-7.2c-4.9-3.7-21.6-14.5-17.9-23.5c2-4.7,8-3,13.5-2.6
				c6,1.8,12.9,0.2,19-0.5c13.6-1.9,27.6,11.1,31.6,23.1C280.1-407.2,268.8-405.7,261.5-404.7z"/>
			<path class="st1" d="M328-403.9c-13,23.7,8.6,28.7,2.7,35.6c-11.2,8.7-31.9-5.2-40.6,10.7c-14.9,20.5,6.6,66.3-14,70
				c-9.7,1.7-16.9-9.4-18.4-18c-6.3-35.4-28.9-56.1-54.8-75.6c-6.9-5.2-13.6-10.8-19.7-16.9c-12.5-12.7-33.1-20-50.3-21.3
				c-21.4-1.6-39.5,3.5-53.9-11.1c-41-41.9,60.3-63.1,89.8-72.3c22.1-6.8-10.9-23.6-9.9-38.2c1.3-20.4,34.1-17.2,62-10.4
				c23.7,0.2,27.6-18.8,4.9-23.2c-12.7-2.5-47.9-2.1-64.7,7.3c-16.5,9.2-26.2,13-23.3,30.2C149.7-466.7,4.5-530,0-471.6
				c0.8,26.7,54.7,15,55.6,62.9c0,0.1,0.4,6.2,0.5,6.3c1.2,7.8,9.1,26.2,22.8,19.3c25.5-12.8,43.2-22.7,59.3-21.2
				c23.5,2.2,32.8,13.3,18.4,12.6c-5.3-0.3-3.5,13.7,8.4,15c23.2,2.4,28.3,24,58.6,40.1c7.3,4.9,13.4,11.5,16.8,19.8
				c0,0,0,0.1,0.1,0.1c2.6,5.4-2.4,11.3-8.2,9.9c-28.8-6.8-54.1,4.6-6.9,24c8.4,2.4,38.2,15.4,53.4,16.1c30,0.1,15.3-40.5,20.3-59
				c6-23,34.5-8.2,49.5-21.2C364.5-361.8,339.6-425.1,328-403.9z"/>
			<path class="st1" d="M532.7-521.6c-88-22.5-54.4,31.2-97,40C418.9-482,410-497,403.4-510c-9-15.8-19.5-39.9-46.1-39.9
				c-12.5,0,5.7-36.6-17.2-40.6c-22.4-3.9-27.4,26.5-28.3,35c-3.7,37.4,24.8,19.4,35.9,20.9c26.2,3.4,21.5,39.7,24.6,62.4
				c2,18.3,14.2,36.3,10.4,54.5c-0.8,3.8-4.8,7.4-7.8,7.6c-14.3,0.8-9.7-28.9-11.3-40.9c-2-18.1-9.5-34.9-16.9-51.5
				c-12.4-23.3-46.5,0.6-68-6c-7-1.4-12.7-3.5-17.4-6.1c-18.7-10.2-11.8-19.3-32.2-25.7c-20.3-6.3-31.6,2.1-41.4,9.7
				c-14.9,11.6-0.7,21,11.2,16.6c28.8-10.7,43.5,17,58.3,23.3c18.7,10,36.9-9.3,55.5-4.8c43.6,10.1,27.3,57.9,42.3,91.2
				c18.5,41.4-5.2,73.3,12.4,75.6c16.6,1.3,58.8-31.2,40.3-37.4c-10.1-3.4,0.5-31.6-3.2-48.4c-6.1-28-20.8-49.7-9.4-58.2
				c9-9,41.6-5.9,53.6,2.1c13,9,16,26,30,36c7,5,22,5,22-5c0-22-30-40-18.1-63.5c4.1-7.2,12.2-10.2,20.7-9.3
				C513.5-511.5,560.3-504.9,532.7-521.6z"/>
		</g>
		<g>
			<path class="st1" d="M1014.3-645.9c-30.3,33.8-59.6,9.1-81.2-13.2c-17.9-14.9-39-26.9-62.1-37.5c-11.6-6.4-27.6-13.4-28.8-27.6
				c0.4-20.6,38.4-33.4,56.1-39.4c34.6-11.8,44.4,10.7,75.6,21.3c29.5-1.4,68.7,1.1,70.8,38.2C1046.1-680.2,1030.5-664,1014.3-645.9
				z M1017.1-704.3c-31.5-33.8-40.5-8.8-65.6-23.6c-19.2-8.3-46.2-20.3-59.2-1.3c-12,20,27.1,37.4,42.7,53.2
				c9.9,7.4,21.7,13.5,33.7,16.5c21.5,6.4,47.1-5.7,52.5-28.1C1023.2-695.2,1020.7-700.4,1017.1-704.3z"/>
			<path class="st1" d="M980.1-671.3c-10.4,2.1-20.6-1-28.9-7.2c-4.9-3.7-21.6-14.5-17.9-23.5c2-4.7,8-3,13.5-2.6
				c6,1.8,12.9,0.2,19-0.5c13.6-1.9,27.6,11.1,31.6,23.1C998.7-673.8,987.4-672.3,980.1-671.3z"/>
			<path class="st1" d="M1046.6-670.6c-13,23.7,8.6,28.7,2.7,35.6c-11.2,8.7-31.9-5.2-40.6,10.7c-14.9,20.5,6.6,66.3-14,70
				c-9.7,1.7-16.9-9.4-18.4-18c-6.3-35.4-28.9-56.1-54.8-75.6c-6.9-5.2-13.6-10.8-19.7-16.9c-12.5-12.7-33.1-20-50.3-21.3
				c-21.4-1.6-39.5,3.5-53.9-11.1c-41-41.9,60.3-63.1,89.8-72.3c22.1-6.8-10.8-23.6-9.9-38.2c1.3-20.4,34.1-17.2,62-10.4
				c23.7,0.2,27.6-18.8,4.9-23.2c-12.7-2.5-47.9-2.1-64.7,7.3c-16.5,9.2-26.2,13-23.3,30.2c12.1,70.6-133.1,7.2-137.6,65.6
				c0.8,26.7,54.7,15,55.6,62.9c0,0.1,0.4,6.2,0.5,6.3c1.2,7.8,9.1,26.2,22.8,19.3c25.5-12.8,43.2-22.7,59.3-21.2
				c23.5,2.2,32.8,13.3,18.4,12.6c-5.3-0.3-3.5,13.7,8.4,15c23.2,2.4,28.3,24,58.6,40.1c7.3,4.9,13.4,11.5,16.8,19.8
				c0,0,0,0.1,0.1,0.1c2.6,5.4-2.4,11.3-8.2,9.9c-28.8-6.8-54.1,4.6-6.9,24c8.4,2.4,38.2,15.4,53.4,16.1c30,0.1,15.3-40.5,20.3-59
				c6-23,34.5-8.2,49.5-21.2C1083.1-628.5,1058.2-691.7,1046.6-670.6z"/>
			<path class="st1" d="M1251.3-788.3c-88-22.5-54.4,31.2-97,40c-16.7-0.3-25.7-15.4-32.3-28.4c-9-15.8-19.5-39.9-46.1-39.9
				c-12.5,0,5.7-36.6-17.2-40.6c-22.4-3.9-27.4,26.5-28.3,35c-3.7,37.4,24.8,19.4,35.9,20.9c26.2,3.4,21.5,39.7,24.6,62.4
				c2,18.3,14.2,36.3,10.4,54.5c-0.8,3.8-4.8,7.4-7.8,7.6c-14.3,0.8-9.7-28.9-11.3-40.9c-2-18.1-9.5-34.9-16.9-51.5
				c-12.4-23.3-46.5,0.6-68-6c-7-1.4-12.7-3.5-17.4-6.1c-18.7-10.2-11.8-19.3-32.2-25.7c-20.3-6.3-31.6,2.1-41.4,9.7
				c-14.9,11.6-0.7,21,11.2,16.6c28.8-10.7,43.5,17,58.3,23.3c18.7,10,36.9-9.3,55.5-4.8c43.6,10.1,27.3,57.9,42.3,91.2
				c18.5,41.4-5.2,73.3,12.4,75.6c16.6,1.3,58.8-31.2,40.3-37.4c-10.1-3.4,0.5-31.6-3.2-48.4c-6.1-28-20.8-49.7-9.4-58.2
				c9-9,41.6-5.9,53.6,2.1c13,9,16,26,30,36c7,5,22,5,22-5c0-22-30-40-18.1-63.5c4.1-7.2,12.2-10.2,20.7-9.3
				C1232.1-778.1,1278.9-771.5,1251.3-788.3z"/>
			<path class="st1" d="M808.6-846.7c-4.5-6.3-23.5-15.4-25.1,6.4c-0.8,10.4,0.8,31.2,1.8,41.5c1.8,18.1,31.9,18,39.2,8.3
				C834.6-803.9,816.2-836,808.6-846.7z"/>
			<path class="st1" d="M885.7-619.6c-29.8-20.2-29.7,26.2-2.2,31.9c12.3,2.5,36.1,6,30.2-12.6C910.9-609.5,894-614,885.7-619.6z"/>
		</g>
		<g>
			<path class="st1" d="M655-512.6c-30.3,33.8-59.6,9.1-81.2-13.2c-17.9-14.9-39-26.9-62.1-37.5c-11.6-6.4-27.6-13.4-28.8-27.6
				c0.4-20.6,38.4-33.4,56.1-39.4c34.6-11.8,44.4,10.7,75.6,21.3c29.5-1.4,68.7,1.1,70.8,38.2C686.8-546.9,671.3-530.7,655-512.6z
				 M657.8-571c-31.5-33.8-40.5-8.8-65.6-23.6C573-603,546-615,533-596c-12,20,27.1,37.4,42.7,53.2c9.9,7.4,21.7,13.5,33.7,16.5
				c21.5,6.4,47.1-5.7,52.5-28.1C663.9-561.9,661.5-567.1,657.8-571z"/>
			<path class="st1" d="M620.8-538c-10.4,2.1-20.6-1-28.9-7.2c-4.9-3.7-21.6-14.5-17.9-23.5c2-4.7,8-3,13.5-2.6
				c6,1.8,12.9,0.2,19-0.5c13.6-1.9,27.6,11.1,31.6,23.1C639.4-540.5,628.1-539,620.8-538z"/>
			<path class="st1" d="M687.3-537.3c-13,23.7,8.6,28.7,2.7,35.6c-11.2,8.7-31.9-5.2-40.6,10.7c-14.9,20.5,6.6,66.3-14,70
				c-9.7,1.7-16.9-9.4-18.4-18c-6.3-35.4-28.9-56.1-54.8-75.6c-6.9-5.2-13.6-10.8-19.7-16.9c-12.5-12.7-33.1-20-50.3-21.3
				c-21.4-1.6-39.5,3.5-53.9-11.1c-41-41.9,60.3-63.1,89.8-72.3c22.1-6.8-10.9-23.6-9.9-38.2c1.3-20.4,34.1-17.2,62-10.4
				c23.7,0.2,27.6-18.8,4.9-23.2c-12.7-2.5-47.9-2.1-64.7,7.3c-16.5,9.2-26.2,13-23.3,30.2C509-600,363.8-663.3,359.3-605
				c0.8,26.7,54.7,15,55.6,62.9c0,0.1,0.4,6.2,0.5,6.3c1.2,7.8,9.1,26.2,22.8,19.3c25.5-12.8,43.2-22.7,59.3-21.2
				c23.5,2.2,32.8,13.3,18.4,12.6c-5.3-0.3-3.5,13.7,8.4,15c23.2,2.4,28.3,24,58.6,40.1c7.3,4.9,13.4,11.5,16.8,19.8
				c0,0,0,0.1,0.1,0.1c2.6,5.4-2.4,11.3-8.2,9.9c-28.8-6.8-54.1,4.6-6.9,24c8.4,2.4,38.2,15.4,53.4,16.1c30,0.1,15.3-40.5,20.3-59
				c6-23,34.5-8.2,49.5-21.2C723.8-495.1,698.9-558.4,687.3-537.3z"/>
			<path class="st1" d="M892-655c-88-22.5-54.4,31.2-97,40c-16.7-0.3-25.7-15.4-32.3-28.4c-9-15.8-19.5-39.9-46.1-39.9
				c-12.5,0,5.7-36.6-17.2-40.6c-22.4-3.9-27.4,26.5-28.3,35c-3.7,37.4,24.8,19.4,35.9,20.9c26.2,3.4,21.5,39.7,24.6,62.4
				c2,18.3,14.2,36.3,10.4,54.5c-0.8,3.8-4.8,7.4-7.8,7.6c-14.3,0.8-9.7-28.9-11.3-40.9c-2-18.1-9.5-34.9-16.9-51.5
				c-12.4-23.3-46.5,0.6-68-6c-7-1.4-12.7-3.5-17.4-6.1c-18.7-10.2-11.8-19.3-32.2-25.7c-20.3-6.3-31.6,2.1-41.4,9.7
				c-14.9,11.6-0.7,21,11.2,16.6c28.8-10.7,43.5,17,58.3,23.3c18.7,10,36.9-9.3,55.5-4.8c43.6,10.1,27.3,57.9,42.3,91.2
				c18.5,41.4-5.2,73.3,12.4,75.6c16.6,1.3,58.8-31.2,40.3-37.4c-10.1-3.4,0.5-31.6-3.2-48.4c-6.1-28-20.8-49.7-9.4-58.2
				c9-9,41.6-5.9,53.6,2.1c13,9,16,26,30,36c7,5,22,5,22-5c0-22-30-40-18.1-63.5c4.1-7.2,12.2-10.2,20.7-9.3
				C872.8-644.8,919.6-638.2,892-655z"/>
			<path class="st1" d="M449.3-713.4c-4.5-6.3-23.5-15.4-25.1,6.4c-0.8,10.4,0.8,31.2,1.8,41.5c1.8,18.1,31.9,18,39.2,8.3
				C475.3-670.6,456.9-702.7,449.3-713.4z"/>
			<path class="st1" d="M526.4-486.3c-29.8-20.2-29.7,26.2-2.2,31.9c12.3,2.5,36.1,6,30.2-12.6C551.6-476.2,534.7-480.7,526.4-486.3
				z"/>
		</g>
		<g>
			<path class="st1" d="M295.7-645.9c-30.3,33.8-59.6,9.1-81.2-13.2c-17.9-14.9-39-26.9-62.1-37.5c-11.6-6.4-27.6-13.4-28.8-27.6
				c0.4-20.6,38.4-33.4,56.1-39.4c34.6-11.8,44.4,10.7,75.6,21.3c29.5-1.4,68.7,1.1,70.8,38.2C327.5-680.2,312-664,295.7-645.9z
				 M298.5-704.3c-31.5-33.8-40.5-8.8-65.6-23.6c-19.2-8.3-46.2-20.3-59.2-1.3c-12,20,27.1,37.4,42.7,53.2
				c9.9,7.4,21.7,13.5,33.7,16.5c21.5,6.4,47.1-5.7,52.5-28.1C304.6-695.2,302.2-700.4,298.5-704.3z"/>
			<path class="st1" d="M261.5-671.3c-10.4,2.1-20.6-1-28.9-7.2c-4.9-3.7-21.6-14.5-17.9-23.5c2-4.7,8-3,13.5-2.6
				c6,1.8,12.9,0.2,19-0.5c13.6-1.9,27.6,11.1,31.6,23.1C280.1-673.8,268.8-672.3,261.5-671.3z"/>
			<path class="st1" d="M328-670.6c-13,23.7,8.6,28.7,2.7,35.6c-11.2,8.7-31.9-5.2-40.6,10.7c-14.9,20.5,6.6,66.3-14,70
				c-9.7,1.7-16.9-9.4-18.4-18c-6.3-35.4-28.9-56.1-54.8-75.6c-6.9-5.2-13.6-10.8-19.7-16.9c-12.5-12.7-33.1-20-50.3-21.3
				c-21.4-1.6-39.5,3.5-53.9-11.1c-41-41.9,60.3-63.1,89.8-72.3c22.1-6.8-10.9-23.6-9.9-38.2c1.3-20.4,34.1-17.2,62-10.4
				c23.7,0.2,27.6-18.8,4.9-23.2c-12.7-2.5-47.9-2.1-64.7,7.3c-16.5,9.2-26.2,13-23.3,30.2C149.7-733.3,4.5-796.6,0-738.3
				c0.8,26.7,54.7,15,55.6,62.9c0,0.1,0.4,6.2,0.5,6.3c1.2,7.8,9.1,26.2,22.8,19.3c25.5-12.8,43.2-22.7,59.3-21.2
				c23.5,2.2,32.8,13.3,18.4,12.6c-5.3-0.3-3.5,13.7,8.4,15c23.2,2.4,28.3,24,58.6,40.1c7.3,4.9,13.4,11.5,16.8,19.8
				c0,0,0,0.1,0.1,0.1c2.6,5.4-2.4,11.3-8.2,9.9c-28.8-6.8-54.1,4.6-6.9,24c8.4,2.4,38.2,15.4,53.4,16.1c30,0.1,15.3-40.5,20.3-59
				c6-23,34.5-8.2,49.5-21.2C364.5-628.5,339.6-691.7,328-670.6z"/>
			<path class="st1" d="M532.7-788.3c-88-22.5-54.4,31.2-97,40c-16.7-0.3-25.7-15.4-32.3-28.4c-9-15.8-19.5-39.9-46.1-39.9
				c-12.5,0,5.7-36.6-17.2-40.6c-22.4-3.9-27.4,26.5-28.3,35c-3.7,37.4,24.8,19.4,35.9,20.9c26.2,3.4,21.5,39.7,24.6,62.4
				c2,18.3,14.2,36.3,10.4,54.5c-0.8,3.8-4.8,7.4-7.8,7.6c-14.3,0.8-9.7-28.9-11.3-40.9c-2-18.1-9.5-34.9-16.9-51.5
				c-12.4-23.3-46.5,0.6-68-6c-7-1.4-12.7-3.5-17.4-6.1c-18.7-10.2-11.8-19.3-32.2-25.7c-20.3-6.3-31.6,2.1-41.4,9.7
				c-14.9,11.6-0.7,21,11.2,16.6c28.8-10.7,43.5,17,58.3,23.3c18.7,10,36.9-9.3,55.5-4.8c43.6,10.1,27.3,57.9,42.3,91.2
				c18.5,41.4-5.2,73.3,12.4,75.6c16.6,1.3,58.8-31.2,40.3-37.4c-10.1-3.4,0.5-31.6-3.2-48.4c-6.1-28-20.8-49.7-9.4-58.2
				c9-9,41.6-5.9,53.6,2.1c13,9,16,26,30,36c7,5,22,5,22-5c0-22-30-40-18.1-63.5c4.1-7.2,12.2-10.2,20.7-9.3
				C513.5-778.1,560.3-771.5,532.7-788.3z"/>
		</g>
		<g>
			<path class="st1" d="M1046.6-937.2c-13,23.7,8.6,28.7,2.7,35.6c-11.2,8.7-31.9-5.2-40.6,10.7c-14.9,20.5,6.6,66.3-14,70
				c-9.7,1.7-16.9-9.4-18.4-18c-6.3-35.4-28.9-56.1-54.8-75.6c-6.9-5.2-13.6-10.8-19.7-16.9c-12.5-12.7-33.1-20-50.3-21.3
				c-21.4-1.6-39.5,3.5-53.9-11.1c-41-41.9,60.3-63.1,89.8-72.3c22.1-6.8-10.8-23.6-9.9-38.2c1.3-20.4,34.1-17.2,62-10.4
				c23.7,0.2,27.6-18.8,4.9-23.2c-12.7-2.5-47.9-2.1-64.7,7.3c-16.5,9.2-26.2,13-23.3,30.2c12.1,70.6-133.1,7.2-137.6,65.6
				c0.8,26.7,54.7,15,55.6,62.9c0,0.1,0.4,6.2,0.5,6.3c1.2,7.8,9.1,26.2,22.8,19.3c25.5-12.8,43.2-22.7,59.3-21.2
				c23.5,2.2,32.8,13.3,18.4,12.6c-5.3-0.3-3.5,13.7,8.4,15c23.2,2.4,28.3,24,58.6,40.1c7.3,4.9,13.4,11.5,16.8,19.8
				c0,0,0,0.1,0.1,0.1c2.6,5.4-2.4,11.3-8.2,9.9c-28.8-6.8-54.1,4.6-6.9,24c8.4,2.4,38.2,15.4,53.4,16.1c30,0.1,15.3-40.5,20.3-59
				c6-23,34.5-8.2,49.5-21.2C1083.1-895.1,1058.2-958.4,1046.6-937.2z"/>
		</g>
		<g>
			<path class="st1" d="M655-779.2c-30.3,33.8-59.6,9.1-81.2-13.2c-17.9-14.9-39-26.9-62.1-37.5c-11.6-6.4-27.6-13.4-28.8-27.6
				c0.4-20.6,38.4-33.4,56.1-39.4c34.6-11.8,44.4,10.7,75.6,21.3c29.5-1.4,68.7,1.1,70.8,38.2C686.8-813.5,671.3-797.3,655-779.2z
				 M657.8-837.6c-31.5-33.8-40.5-8.8-65.6-23.6c-19.2-8.3-46.2-20.3-59.2-1.3c-12,20,27.1,37.4,42.7,53.2
				c9.9,7.4,21.7,13.5,33.7,16.5c21.5,6.4,47.1-5.7,52.5-28.1C663.9-828.5,661.5-833.7,657.8-837.6z"/>
			<path class="st1" d="M620.8-804.6c-10.4,2.1-20.6-1-28.9-7.2c-4.9-3.7-21.6-14.5-17.9-23.5c2-4.7,8-3,13.5-2.6
				c6,1.8,12.9,0.2,19-0.5c13.6-1.9,27.6,11.1,31.6,23.1C639.4-807.1,628.1-805.6,620.8-804.6z"/>
			<path class="st1" d="M687.3-803.9c-13,23.7,8.6,28.7,2.7,35.6c-11.2,8.7-31.9-5.2-40.6,10.7c-14.9,20.5,6.6,66.3-14,70
				c-9.7,1.7-16.9-9.4-18.4-18c-6.3-35.4-28.9-56.1-54.8-75.6c-6.9-5.2-13.6-10.8-19.7-16.9c-12.5-12.7-33.1-20-50.3-21.3
				c-21.4-1.6-39.5,3.5-53.9-11.1c-41-41.9,60.3-63.1,89.8-72.3c22.1-6.8-10.9-23.6-9.9-38.2c1.3-20.4,34.1-17.2,62-10.4
				c23.7,0.2,27.6-18.8,4.9-23.2c-12.7-2.5-47.9-2.1-64.7,7.3c-16.5,9.2-26.2,13-23.3,30.2c12.1,70.6-133.1,7.2-137.6,65.6
				c0.8,26.7,54.7,15,55.6,62.9c0,0.1,0.4,6.2,0.5,6.3c1.2,7.8,9.1,26.2,22.8,19.3c25.5-12.8,43.2-22.7,59.3-21.2
				c23.5,2.2,32.8,13.3,18.4,12.6c-5.3-0.3-3.5,13.7,8.4,15c23.2,2.4,28.3,24,58.6,40.1c7.3,4.9,13.4,11.5,16.8,19.8
				c0,0,0,0.1,0.1,0.1c2.6,5.4-2.4,11.3-8.2,9.9c-28.8-6.8-54.1,4.6-6.9,24c8.4,2.4,38.2,15.4,53.4,16.1c30,0.1,15.3-40.5,20.3-59
				c6-23,34.5-8.2,49.5-21.2C723.8-761.8,698.9-825.1,687.3-803.9z"/>
			<path class="st1" d="M892-921.6c-88-22.5-54.4,31.2-97,40c-16.7-0.3-25.7-15.4-32.3-28.4c-9-15.8-19.5-39.9-46.1-39.9
				c-12.5,0,5.7-36.6-17.2-40.6c-22.4-3.9-27.4,26.5-28.3,35c-3.7,37.4,24.8,19.4,35.9,20.9c26.2,3.4,21.5,39.7,24.6,62.4
				c2,18.3,14.2,36.3,10.4,54.5c-0.8,3.8-4.8,7.4-7.8,7.6c-14.3,0.8-9.7-28.9-11.3-40.9c-2-18.1-9.5-34.9-16.9-51.5
				c-12.4-23.3-46.5,0.6-68-6c-7-1.4-12.7-3.5-17.4-6.1c-18.7-10.2-11.8-19.3-32.2-25.7c-20.3-6.3-31.6,2.1-41.4,9.7
				c-14.9,11.6-0.7,21,11.2,16.6c28.8-10.7,43.5,17,58.3,23.3c18.7,10,36.9-9.3,55.5-4.8c43.6,10.1,27.3,57.9,42.3,91.2
				c18.5,41.4-5.2,73.3,12.4,75.6c16.6,1.3,58.8-31.2,40.3-37.4c-10.1-3.4,0.5-31.6-3.2-48.4c-6.1-28-20.8-49.7-9.4-58.2
				c9-9,41.6-5.9,53.6,2.1c13,9,16,26,30,36c7,5,22,5,22-5c0-22-30-40-18.1-63.5c4.1-7.2,12.2-10.2,20.7-9.3
				C872.8-911.4,919.6-904.8,892-921.6z"/>
			<path class="st1" d="M526.4-752.9c-29.8-20.2-29.7,26.2-2.2,31.9c12.3,2.5,36.1,6,30.2-12.6C551.6-742.8,534.7-747.3,526.4-752.9
				z"/>
		</g>
		<g>
			<path class="st1" d="M328-937.2c-13,23.7,8.6,28.7,2.7,35.6c-11.2,8.7-31.9-5.2-40.6,10.7c-14.9,20.5,6.6,66.3-14,70
				c-9.7,1.7-16.9-9.4-18.4-18c-6.3-35.4-28.9-56.1-54.8-75.6c-6.9-5.2-13.6-10.8-19.7-16.9c-12.5-12.7-33.1-20-50.3-21.3
				c-21.4-1.6-39.5,3.5-53.9-11.1c-41-41.9,60.3-63.1,89.8-72.3c22.1-6.8-10.9-23.6-9.9-38.2c1.3-20.4,34.1-17.2,62-10.4
				c23.7,0.2,27.6-18.8,4.9-23.2c-12.7-2.5-47.9-2.1-64.7,7.3c-16.5,9.2-26.2,13-23.3,30.2c12.1,70.6-133.1,7.2-137.6,65.6
				c0.8,26.7,54.7,15,55.6,62.9c0,0.1,0.4,6.2,0.5,6.3c1.2,7.8,9.1,26.2,22.8,19.3c25.5-12.8,43.2-22.7,59.3-21.2
				c23.5,2.2,32.8,13.3,18.4,12.6c-5.3-0.3-3.5,13.7,8.4,15c23.2,2.4,28.3,24,58.6,40.1c7.3,4.9,13.4,11.5,16.8,19.8
				c0,0,0,0.1,0.1,0.1c2.6,5.4-2.4,11.3-8.2,9.9c-28.8-6.8-54.1,4.6-6.9,24c8.4,2.4,38.2,15.4,53.4,16.1c30,0.1,15.3-40.5,20.3-59
				c6-23,34.5-8.2,49.5-21.2C364.5-895.1,339.6-958.4,328-937.2z"/>
		</g>
	</g>
</pattern>
<g id="screens">
</g>
<g id="Layer_21">
</g>
<g id="Layer_20">
</g>
<g id="Layer_18" class="st10">
</g>
<g id="sidebar_x5F_bg">
</g>
<g id="sidebar_x5F_lines">
</g>
<g id="bg_x5F_карточки">
</g>
<g id="карточки_x5F_лайн" class="st10">
</g>
<g id="развертыш">
</g>
<g id="разв_x5F_оформление">
</g>
<g id="разв_x5F_1">
</g>
<g id="разв_x5F_2">
</g>
<g id="icons">
</g>
<g id="TextMain">
</g>
<g id="Headline1">
</g>
<g id="header_x5F_bg">
</g>
<g id="Layer_1">
</g>
<g id="action_buttons">
</g>
<g id="sidebar_text">
</g>
<g id="Layer_22">
	<rect class="st3" width="718.6" height="266.6"/>
	<pattern  id="SVGID_1_" xlink:href="#New_Pattern_4" patternTransform="matrix(1 0 0 1 2274.7717 397.6702)">
	</pattern>
	<rect class="st6" width="718.6" height="266.6"/>
</g>
</svg>
