<?xml version="1.0" encoding="utf-8"?>
<!-- Generator: Adobe Illustrator 26.3.1, SVG Export Plug-In . SVG Version: 6.00 Build 0)  -->
<svg version="1.1" xmlns="http://www.w3.org/2000/svg" xmlns:xlink="http://www.w3.org/1999/xlink" x="0px" y="0px"
	 viewBox="0 0 400 160" style="enable-background:new 0 0 400 160;" xml:space="preserve">
<style type="text/css">
	.st0{fill:none;}
	.st1{fill:#F2F2F2;}
	.st2{fill-rule:evenodd;clip-rule:evenodd;fill:#DBDBDB;}
	.st3{fill:none;stroke:#FFFFFF;stroke-miterlimit:10;}
	.st4{opacity:0.3;fill:#F2F2F2;}
	.st5{fill:url(#New_Pattern_2);}
	.st6{fill:url(#SVGID_1_);}
	.st7{fill:url(#);}
	.st8{fill:url(#SVGID_00000000207134068198958050000011523263939026780071_);}
	.st9{fill:#2949D3;}
	.st10{fill:none;stroke:#1F258F;stroke-miterlimit:10;}
	.st11{fill:none;stroke:#1F258F;stroke-width:1.1382;stroke-miterlimit:10;}
	.st12{fill:#FFFFFF;}
	.st13{fill:none;stroke:#BFBFBF;stroke-width:0.75;stroke-miterlimit:10;}
	.st14{fill:none;stroke:#BFBFBF;stroke-width:0.8536;stroke-miterlimit:10;}
	.st15{fill:#4D4D4D;}
	.st16{fill:#1D82F5;}
	.st17{fill:#3FA9F5;}
	.st18{fill:#1F258F;}
	.st19{fill:#151569;}
	.st20{fill:#5FCE05;}
	.st21{fill:#B2B2B2;}
	.st22{fill:none;stroke:#BFBFBF;stroke-miterlimit:10;}
	.st23{fill:#B3E58A;}
	.st24{fill:#EE005B;}
	.st25{fill:#D8D4D3;}
	.st26{fill:none;stroke:#151569;stroke-miterlimit:10;}
	.st27{opacity:0.13;fill:#FFFFFF;}
	.st28{fill:none;stroke:#5FCE05;stroke-width:3;stroke-linecap:round;stroke-linejoin:round;stroke-miterlimit:10;}
	.st29{fill:none;stroke:#151569;stroke-width:1.1382;stroke-miterlimit:10;}
	.st30{fill:none;stroke:#5FCE05;stroke-width:3.4146;stroke-linecap:round;stroke-linejoin:round;stroke-miterlimit:10;}
	.st31{fill:none;stroke:#000000;stroke-width:2;stroke-linecap:round;stroke-linejoin:round;stroke-miterlimit:10;}
	.st32{fill:none;stroke:#000000;stroke-miterlimit:10;}
	.st33{fill:none;stroke:#EE005B;stroke-miterlimit:10;}
	.st34{fill:none;stroke:#FFFFFF;stroke-width:2;stroke-miterlimit:10;}
	.st35{fill:none;stroke:#B2B2B2;stroke-width:2;stroke-miterlimit:10;}
	.st36{fill:none;stroke:#FFFFFF;stroke-width:2.0589;stroke-miterlimit:10;}
	.st37{fill-rule:evenodd;clip-rule:evenodd;}
	.st38{display:none;}
	.st39{display:inline;}
	.st40{fill:none;stroke:#EE005B;stroke-width:0.8138;stroke-miterlimit:10;}
	.st41{display:inline;fill:#2949D3;}
	.st42{display:inline;fill:#1D82F5;}
	.st43{display:inline;fill:#1F258F;}
	.st44{display:inline;fill:#151569;}
	.st45{display:inline;fill:#EE005B;}
	.st46{display:inline;fill:#5FCE05;}
	.st47{display:inline;fill:#B3E58A;}
	.st48{display:inline;fill:#F2F2F2;}
	.st49{display:inline;fill:#B2B2B2;}
	.st50{display:inline;fill:#BFBFBF;}
	.st51{display:inline;fill:#FFFFFF;stroke:#000000;stroke-miterlimit:10;}
	.st52{display:inline;fill:#D8D4D3;}
	.st53{display:inline;fill:#4D4D4D;}
	.st54{fill:none;stroke:#EE005B;stroke-width:1.1382;stroke-miterlimit:10;}
	.st55{display:inline;fill:none;stroke:#FF931E;stroke-width:1.9735;stroke-miterlimit:10;}
	.st56{display:inline;fill:none;stroke:#FF931E;stroke-width:2;stroke-miterlimit:10;}
	.st57{fill-rule:evenodd;clip-rule:evenodd;fill:#D3D3D3;}
</style>
<pattern  x="-5224.7" y="-3399.5" width="200" height="160" patternUnits="userSpaceOnUse" id="New_Pattern_2" viewBox="50 -200 200 160" style="overflow:visible;">
	<g>
		<rect x="50" y="-200" class="st0" width="200" height="160"/>
		<g>
			<rect x="200" y="-120" class="st1" width="100" height="80"/>
			<g>
				<path class="st2" d="M245.6-78.3c0-2.4,2-4.4,4.4-4.4c2.4,0,4.4,2,4.4,4.4c0,2.4-2,4.4-4.4,4.4
					C247.6-73.9,245.6-75.8,245.6-78.3z"/>
				<path class="st2" d="M272.8-75c0,1.4-1.1,2.5-2.5,2.5c-0.2,0-0.3,0-0.5,0c-0.5,1.4-1.5,2.3-2.7,2.3c-0.1,0-0.1,0-0.2,0v4.6
					c0,2.1-1.7,3.8-3.8,3.8h-26.8c-2.1,0-3.8-1.7-3.8-3.8v-4.6c-1.1-0.1-2.1-1-2.6-2.3c-0.1,0-0.3,0-0.5,0c-1.4,0-2.5-1.1-2.5-2.5
					c0-1.4,1.1-2.5,2.5-2.5c0.2,0,0.3,0,0.5,0c0.5-1.3,1.5-2.2,2.6-2.3v-4.6c0-2.1,1.7-3.8,3.8-3.8h9.4v-0.1c0-0.7,0.5-1.2,1.2-1.2
					h2.2v-3.8c-1.1-0.3-1.9-1.2-1.9-2.4c0-1.4,1.1-2.5,2.5-2.5c1.4,0,2.5,1.1,2.5,2.5c0,1.2-0.8,2.1-1.9,2.4v3.8h2.2
					c0.7,0,1.2,0.5,1.2,1.2v0.1h9.4c2.1,0,3.8,1.7,3.8,3.8v4.6c0.1,0,0.1,0,0.2,0c1.1,0,2.1,0.9,2.7,2.3c0.1,0,0.3,0,0.5,0
					C271.7-77.5,272.8-76.4,272.8-75z M243.3-78.3c0,3.7,3,6.7,6.7,6.7c3.7,0,6.7-3,6.7-6.7c0-3.7-3-6.7-6.7-6.7
					C246.3-84.9,243.3-81.9,243.3-78.3z M260.6-71.7c-0.5-0.4-1.2-0.4-1.6,0.1c0,0-3.4,3.9-9.5,3.9c-5.9,0-8.4-3.6-8.5-3.8
					c-0.3-0.5-1.1-0.7-1.6-0.3c-0.5,0.3-0.7,1.1-0.3,1.6c0.1,0.2,3.2,4.8,10.4,4.8c7.1,0,11-4.5,11.2-4.7
					C261.2-70.6,261.1-71.3,260.6-71.7z"/>
			</g>
		</g>
		<g>
			<rect x="100" y="-80" class="st1" width="100" height="80"/>
			<g>
				<path class="st2" d="M145.6-38.3c0-2.4,2-4.4,4.4-4.4c2.4,0,4.4,2,4.4,4.4c0,2.4-2,4.4-4.4,4.4
					C147.6-33.9,145.6-35.8,145.6-38.3z"/>
				<path class="st2" d="M172.8-35c0,1.4-1.1,2.5-2.5,2.5c-0.2,0-0.3,0-0.5,0c-0.5,1.4-1.5,2.3-2.7,2.3c-0.1,0-0.1,0-0.2,0v4.6
					c0,2.1-1.7,3.8-3.8,3.8h-26.8c-2.1,0-3.8-1.7-3.8-3.8v-4.6c-1.1-0.1-2.1-1-2.6-2.3c-0.1,0-0.3,0-0.5,0c-1.4,0-2.5-1.1-2.5-2.5
					c0-1.4,1.1-2.5,2.5-2.5c0.2,0,0.3,0,0.5,0c0.5-1.3,1.5-2.2,2.6-2.3v-4.6c0-2.1,1.7-3.8,3.8-3.8h9.4v-0.1c0-0.7,0.5-1.2,1.2-1.2
					h2.2v-3.8c-1.1-0.3-1.9-1.2-1.9-2.4c0-1.4,1.1-2.5,2.5-2.5c1.4,0,2.5,1.1,2.5,2.5c0,1.2-0.8,2.1-1.9,2.4v3.8h2.2
					c0.7,0,1.2,0.5,1.2,1.2v0.1h9.4c2.1,0,3.8,1.7,3.8,3.8v4.6c0.1,0,0.1,0,0.2,0c1.1,0,2.1,0.9,2.7,2.3c0.1,0,0.3,0,0.5,0
					C171.7-37.5,172.8-36.4,172.8-35z M143.3-38.3c0,3.7,3,6.7,6.7,6.7c3.7,0,6.7-3,6.7-6.7c0-3.7-3-6.7-6.7-6.7
					C146.3-44.9,143.3-41.9,143.3-38.3z M160.6-31.7c-0.5-0.4-1.2-0.4-1.6,0.1c0,0-3.4,3.9-9.5,3.9c-5.9,0-8.4-3.6-8.5-3.8
					c-0.3-0.5-1.1-0.7-1.6-0.3c-0.5,0.3-0.7,1.1-0.3,1.6c0.1,0.2,3.2,4.8,10.4,4.8c7.1,0,11-4.5,11.2-4.7
					C161.2-30.6,161.1-31.3,160.6-31.7z"/>
			</g>
		</g>
		<g>
			<rect y="-120" class="st1" width="100" height="80"/>
			<g>
				<path class="st2" d="M45.6-78.3c0-2.4,2-4.4,4.4-4.4c2.4,0,4.4,2,4.4,4.4c0,2.4-2,4.4-4.4,4.4C47.6-73.9,45.6-75.8,45.6-78.3z"
					/>
				<path class="st2" d="M72.8-75c0,1.4-1.1,2.5-2.5,2.5c-0.2,0-0.3,0-0.5,0c-0.5,1.4-1.5,2.3-2.7,2.3c-0.1,0-0.1,0-0.2,0v4.6
					c0,2.1-1.7,3.8-3.8,3.8H36.4c-2.1,0-3.8-1.7-3.8-3.8v-4.6c-1.1-0.1-2.1-1-2.6-2.3c-0.1,0-0.3,0-0.5,0c-1.4,0-2.5-1.1-2.5-2.5
					c0-1.4,1.1-2.5,2.5-2.5c0.2,0,0.3,0,0.5,0c0.5-1.3,1.5-2.2,2.6-2.3v-4.6c0-2.1,1.7-3.8,3.8-3.8h9.4v-0.1c0-0.7,0.5-1.2,1.2-1.2
					h2.2v-3.8c-1.1-0.3-1.9-1.2-1.9-2.4c0-1.4,1.1-2.5,2.5-2.5c1.4,0,2.5,1.1,2.5,2.5c0,1.2-0.8,2.1-1.9,2.4v3.8h2.2
					c0.7,0,1.2,0.5,1.2,1.2v0.1h9.4c2.1,0,3.8,1.7,3.8,3.8v4.6c0.1,0,0.1,0,0.2,0c1.1,0,2.1,0.9,2.7,2.3c0.1,0,0.3,0,0.5,0
					C71.7-77.5,72.8-76.4,72.8-75z M43.3-78.3c0,3.7,3,6.7,6.7,6.7c3.7,0,6.7-3,6.7-6.7c0-3.7-3-6.7-6.7-6.7
					C46.3-84.9,43.3-81.9,43.3-78.3z M60.6-71.7c-0.5-0.4-1.2-0.4-1.6,0.1c0,0-3.4,3.9-9.5,3.9c-5.9,0-8.4-3.6-8.5-3.8
					c-0.3-0.5-1.1-0.7-1.6-0.3c-0.5,0.3-0.7,1.1-0.3,1.6c0.1,0.2,3.2,4.8,10.4,4.8c7.1,0,11-4.5,11.2-4.7
					C61.2-70.6,61.1-71.3,60.6-71.7z"/>
			</g>
		</g>
		<g>
			<rect x="200" y="-200" class="st1" width="100" height="80"/>
			<g>
				<path class="st2" d="M245.6-158.3c0-2.4,2-4.4,4.4-4.4c2.4,0,4.4,2,4.4,4.4c0,2.4-2,4.4-4.4,4.4
					C247.6-153.9,245.6-155.8,245.6-158.3z"/>
				<path class="st2" d="M272.8-155c0,1.4-1.1,2.5-2.5,2.5c-0.2,0-0.3,0-0.5,0c-0.5,1.4-1.5,2.3-2.7,2.3c-0.1,0-0.1,0-0.2,0v4.6
					c0,2.1-1.7,3.8-3.8,3.8h-26.8c-2.1,0-3.8-1.7-3.8-3.8v-4.6c-1.1-0.1-2.1-1-2.6-2.3c-0.1,0-0.3,0-0.5,0c-1.4,0-2.5-1.1-2.5-2.5
					c0-1.4,1.1-2.5,2.5-2.5c0.2,0,0.3,0,0.5,0c0.5-1.3,1.5-2.2,2.6-2.3v-4.6c0-2.1,1.7-3.8,3.8-3.8h9.4v-0.1c0-0.7,0.5-1.2,1.2-1.2
					h2.2v-3.8c-1.1-0.3-1.9-1.2-1.9-2.4c0-1.4,1.1-2.5,2.5-2.5c1.4,0,2.5,1.1,2.5,2.5c0,1.2-0.8,2.1-1.9,2.4v3.8h2.2
					c0.7,0,1.2,0.5,1.2,1.2v0.1h9.4c2.1,0,3.8,1.7,3.8,3.8v4.6c0.1,0,0.1,0,0.2,0c1.1,0,2.1,0.9,2.7,2.3c0.1,0,0.3,0,0.5,0
					C271.7-157.5,272.8-156.4,272.8-155z M243.3-158.3c0,3.7,3,6.7,6.7,6.7c3.7,0,6.7-3,6.7-6.7c0-3.7-3-6.7-6.7-6.7
					C246.3-164.9,243.3-161.9,243.3-158.3z M260.6-151.7c-0.5-0.4-1.2-0.4-1.6,0.1c0,0-3.4,3.9-9.5,3.9c-5.9,0-8.4-3.6-8.5-3.8
					c-0.3-0.5-1.1-0.7-1.6-0.3c-0.5,0.3-0.7,1.1-0.3,1.6c0.1,0.2,3.2,4.8,10.4,4.8c7.1,0,11-4.5,11.2-4.7
					C261.2-150.6,261.1-151.3,260.6-151.7z"/>
			</g>
		</g>
		<g>
			<rect x="100" y="-160" class="st1" width="100" height="80"/>
			<g>
				<path class="st2" d="M145.6-118.3c0-2.4,2-4.4,4.4-4.4c2.4,0,4.4,2,4.4,4.4c0,2.4-2,4.4-4.4,4.4
					C147.6-113.9,145.6-115.8,145.6-118.3z"/>
				<path class="st2" d="M172.8-115c0,1.4-1.1,2.5-2.5,2.5c-0.2,0-0.3,0-0.5,0c-0.5,1.4-1.5,2.3-2.7,2.3c-0.1,0-0.1,0-0.2,0v4.6
					c0,2.1-1.7,3.8-3.8,3.8h-26.8c-2.1,0-3.8-1.7-3.8-3.8v-4.6c-1.1-0.1-2.1-1-2.6-2.3c-0.1,0-0.3,0-0.5,0c-1.4,0-2.5-1.1-2.5-2.5
					c0-1.4,1.1-2.5,2.5-2.5c0.2,0,0.3,0,0.5,0c0.5-1.3,1.5-2.2,2.6-2.3v-4.6c0-2.1,1.7-3.8,3.8-3.8h9.4v-0.1c0-0.7,0.5-1.2,1.2-1.2
					h2.2v-3.8c-1.1-0.3-1.9-1.2-1.9-2.4c0-1.4,1.1-2.5,2.5-2.5c1.4,0,2.5,1.1,2.5,2.5c0,1.2-0.8,2.1-1.9,2.4v3.8h2.2
					c0.7,0,1.2,0.5,1.2,1.2v0.1h9.4c2.1,0,3.8,1.7,3.8,3.8v4.6c0.1,0,0.1,0,0.2,0c1.1,0,2.1,0.9,2.7,2.3c0.1,0,0.3,0,0.5,0
					C171.7-117.5,172.8-116.4,172.8-115z M143.3-118.3c0,3.7,3,6.7,6.7,6.7c3.7,0,6.7-3,6.7-6.7c0-3.7-3-6.7-6.7-6.7
					C146.3-124.9,143.3-121.9,143.3-118.3z M160.6-111.7c-0.5-0.4-1.2-0.4-1.6,0.1c0,0-3.4,3.9-9.5,3.9c-5.9,0-8.4-3.6-8.5-3.8
					c-0.3-0.5-1.1-0.7-1.6-0.3c-0.5,0.3-0.7,1.1-0.3,1.6c0.1,0.2,3.2,4.8,10.4,4.8c7.1,0,11-4.5,11.2-4.7
					C161.2-110.6,161.1-111.3,160.6-111.7z"/>
			</g>
		</g>
		<g>
			<rect y="-200" class="st1" width="100" height="80"/>
			<g>
				<path class="st2" d="M45.6-158.3c0-2.4,2-4.4,4.4-4.4c2.4,0,4.4,2,4.4,4.4c0,2.4-2,4.4-4.4,4.4
					C47.6-153.9,45.6-155.8,45.6-158.3z"/>
				<path class="st2" d="M72.8-155c0,1.4-1.1,2.5-2.5,2.5c-0.2,0-0.3,0-0.5,0c-0.5,1.4-1.5,2.3-2.7,2.3c-0.1,0-0.1,0-0.2,0v4.6
					c0,2.1-1.7,3.8-3.8,3.8H36.4c-2.1,0-3.8-1.7-3.8-3.8v-4.6c-1.1-0.1-2.1-1-2.6-2.3c-0.1,0-0.3,0-0.5,0c-1.4,0-2.5-1.1-2.5-2.5
					c0-1.4,1.1-2.5,2.5-2.5c0.2,0,0.3,0,0.5,0c0.5-1.3,1.5-2.2,2.6-2.3v-4.6c0-2.1,1.7-3.8,3.8-3.8h9.4v-0.1c0-0.7,0.5-1.2,1.2-1.2
					h2.2v-3.8c-1.1-0.3-1.9-1.2-1.9-2.4c0-1.4,1.1-2.5,2.5-2.5c1.4,0,2.5,1.1,2.5,2.5c0,1.2-0.8,2.1-1.9,2.4v3.8h2.2
					c0.7,0,1.2,0.5,1.2,1.2v0.1h9.4c2.1,0,3.8,1.7,3.8,3.8v4.6c0.1,0,0.1,0,0.2,0c1.1,0,2.1,0.9,2.7,2.3c0.1,0,0.3,0,0.5,0
					C71.7-157.5,72.8-156.4,72.8-155z M43.3-158.3c0,3.7,3,6.7,6.7,6.7c3.7,0,6.7-3,6.7-6.7c0-3.7-3-6.7-6.7-6.7
					C46.3-164.9,43.3-161.9,43.3-158.3z M60.6-151.7c-0.5-0.4-1.2-0.4-1.6,0.1c0,0-3.4,3.9-9.5,3.9c-5.9,0-8.4-3.6-8.5-3.8
					c-0.3-0.5-1.1-0.7-1.6-0.3c-0.5,0.3-0.7,1.1-0.3,1.6c0.1,0.2,3.2,4.8,10.4,4.8c7.1,0,11-4.5,11.2-4.7
					C61.2-150.6,61.1-151.3,60.6-151.7z"/>
			</g>
		</g>
		<g>
			<rect x="100" y="-240" class="st1" width="100" height="80"/>
			<g>
				<path class="st2" d="M145.6-198.3c0-2.4,2-4.4,4.4-4.4c2.4,0,4.4,2,4.4,4.4c0,2.4-2,4.4-4.4,4.4
					C147.6-193.9,145.6-195.8,145.6-198.3z"/>
				<path class="st2" d="M172.8-195c0,1.4-1.1,2.5-2.5,2.5c-0.2,0-0.3,0-0.5,0c-0.5,1.4-1.5,2.3-2.7,2.3c-0.1,0-0.1,0-0.2,0v4.6
					c0,2.1-1.7,3.8-3.8,3.8h-26.8c-2.1,0-3.8-1.7-3.8-3.8v-4.6c-1.1-0.1-2.1-1-2.6-2.3c-0.1,0-0.3,0-0.5,0c-1.4,0-2.5-1.1-2.5-2.5
					c0-1.4,1.1-2.5,2.5-2.5c0.2,0,0.3,0,0.5,0c0.5-1.3,1.5-2.2,2.6-2.3v-4.6c0-2.1,1.7-3.8,3.8-3.8h9.4v-0.1c0-0.7,0.5-1.2,1.2-1.2
					h2.2v-3.8c-1.1-0.3-1.9-1.2-1.9-2.4c0-1.4,1.1-2.5,2.5-2.5c1.4,0,2.5,1.1,2.5,2.5c0,1.2-0.8,2.1-1.9,2.4v3.8h2.2
					c0.7,0,1.2,0.5,1.2,1.2v0.1h9.4c2.1,0,3.8,1.7,3.8,3.8v4.6c0.1,0,0.1,0,0.2,0c1.1,0,2.1,0.9,2.7,2.3c0.1,0,0.3,0,0.5,0
					C171.7-197.5,172.8-196.4,172.8-195z M143.3-198.3c0,3.7,3,6.7,6.7,6.7c3.7,0,6.7-3,6.7-6.7c0-3.7-3-6.7-6.7-6.7
					C146.3-204.9,143.3-201.9,143.3-198.3z M160.6-191.7c-0.5-0.4-1.2-0.4-1.6,0.1c0,0-3.4,3.9-9.5,3.9c-5.9,0-8.4-3.6-8.5-3.8
					c-0.3-0.5-1.1-0.7-1.6-0.3c-0.5,0.3-0.7,1.1-0.3,1.6c0.1,0.2,3.2,4.8,10.4,4.8c7.1,0,11-4.5,11.2-4.7
					C161.2-190.6,161.1-191.3,160.6-191.7z"/>
			</g>
		</g>
	</g>
</pattern>
<g id="screens">
</g>
<g id="bg">
</g>
<g id="Layer_18">
	<pattern  id="SVGID_1_" xlink:href="#New_Pattern_2" patternTransform="matrix(1 0 0 1 219.367 -1.063830e-02)">
	</pattern>
	<rect x="0" class="st6" width="400" height="160"/>
</g>
<g id="sidebar_x5F_bg">
</g>
<g id="sidebar_x5F_lines">
</g>
<g id="bg_x5F_карточки">
</g>
<g id="карточки_x5F_лайн">
</g>
<g id="развертыш">
</g>
<g id="разв_x5F_оформление">
</g>
<g id="разв_x5F_1">
</g>
<g id="разв_x5F_2">
</g>
<g id="icons">
</g>
<g id="TextMain">
</g>
<g id="Headline1">
</g>
<g id="header_x5F_bg">
</g>
<g id="Layer_1">
</g>
<g id="sidebar_buttons">
</g>
<g id="sidebar_text">
</g>
<g id="Layer_19" class="st38">
</g>
<g id="Layer_20">
</g>
</svg>
